<svg width="240" height="42" viewBox="0 0 240 42" fill="none" xmlns="http://www.w3.org/2000/svg">
<rect width="240" height="42" rx="21" fill="#FFDFE7"/>
<path d="M89.7995 8.912H92.9435V31.136H89.7995V8.912ZM91.2155 17.12H95.1275V19.736H91.2155V17.12ZM74.7515 10.928H77.3675V16.04H78.6875V10.928H81.2555V26H74.7515V10.928ZM77.3675 18.536V23.432H78.6875V18.536H77.3675ZM82.1195 10.928H84.6875V16.04H86.0315V10.928H88.6475V26H82.1195V10.928ZM84.6875 18.536V23.432H86.0315V18.536H84.6875ZM96.3016 20.912H116.438V23.456H96.3016V20.912ZM98.8216 28.208H114.494V30.752H98.8216V28.208ZM98.8216 24.68H102.014V29.312H98.8216V24.68ZM98.7736 9.416H113.99V15.584H101.966V17.888H98.7976V13.328H110.846V11.84H98.7736V9.416ZM98.7976 17.144H114.422V19.544H98.7976V17.144ZM129.804 9.56C133.188 9.56 135.732 11.672 135.732 14.648C135.732 17.6 133.188 19.712 129.804 19.712C126.42 19.712 123.876 17.6 123.876 14.648C123.876 11.672 126.42 9.56 129.804 9.56ZM129.804 12.152C128.172 12.152 126.948 13.064 126.948 14.648C126.948 16.232 128.172 17.144 129.804 17.144C131.436 17.144 132.636 16.232 132.636 14.648C132.636 13.064 131.436 12.152 129.804 12.152ZM138.804 8.912H142.02V20.024H138.804V8.912ZM127.188 20.936H142.02V27.032H130.356V29.72H127.236V24.728H138.852V23.408H127.188V20.936ZM127.236 28.424H142.572V30.896H127.236V28.424ZM160.522 8.912H163.738V31.136H160.522V8.912ZM153.97 11.216H157.138C157.138 18.008 154.834 23.576 146.938 27.392L145.282 24.848C151.666 21.776 153.97 17.744 153.97 11.792V11.216ZM146.458 11.216H155.482V13.736H146.458V11.216Z" fill="black"/>
</svg>
